<svg width="176" height="44" viewBox="0 0 176 44" fill="none" xmlns="http://www.w3.org/2000/svg">
<rect x="0.640625" y="5.56543" width="32.8691" height="32.8691" rx="8.0731" fill="white"/>
<path d="M23.3618 32.2931C22.215 32.2602 21.0844 32.0138 20.0279 31.5665C17.2083 30.3511 14.6587 28.5869 12.5275 26.3766C10.3156 24.2437 8.54975 21.6924 7.33247 18.8711C6.25817 16.1412 6.3848 13.9199 7.69057 12.6152C8.99634 11.3105 11.2197 11.1828 13.9464 12.2582C16.7674 13.4754 19.3178 15.2422 21.4489 17.4553C23.6583 19.5872 25.4224 22.1366 26.6387 24.9557C27.713 27.6855 27.5864 29.9068 26.2806 31.2115C25.8916 31.5785 25.4327 31.8634 24.9313 32.0492C24.4298 32.2351 23.8961 32.318 23.3618 32.2931ZM10.6145 13.6096C10.0849 13.569 9.56058 13.7387 9.15514 14.0819C8.48981 14.7472 8.53236 16.2523 9.25894 18.1092C10.3718 20.6645 11.9806 22.9735 13.9921 24.9027C15.9216 26.9138 18.2306 28.5225 20.7856 29.6359C22.6425 30.3676 24.1466 30.4081 24.8129 29.7397C25.4793 29.0712 25.4357 27.5693 24.7091 25.7123C23.5962 23.1571 21.9875 20.848 19.976 18.9188C18.0464 16.9077 15.7375 15.299 13.1825 14.1857C12.3686 13.8391 11.4984 13.6439 10.6145 13.6096Z" fill="black"/>
<path opacity="0.4" d="M10.6124 32.2913C10.0777 32.3169 9.54342 32.2344 9.04139 32.0487C8.53935 31.863 8.0799 31.5781 7.69051 31.2108C6.38474 29.9061 6.25811 27.6817 7.33241 24.955C8.55109 22.1348 10.318 19.585 12.5306 17.4535C14.6613 15.2414 17.2109 13.4754 20.0309 12.2585C22.7608 11.1832 24.981 11.3098 26.2868 12.6156C27.5926 13.9213 27.7192 16.1447 26.6449 18.8714C25.428 21.6918 23.6628 24.2424 21.4519 26.3749C19.3192 28.5858 16.7678 30.35 13.9464 31.5648C12.8898 32.012 11.7592 32.2584 10.6124 32.2913ZM23.3597 13.6079C22.4756 13.6431 21.6054 13.8394 20.7918 14.1871C18.2368 15.3004 15.9278 16.9091 13.9983 18.9202C11.9868 20.8494 10.378 23.1585 9.26511 25.7137C8.53853 27.5707 8.49286 29.0767 9.16131 29.741C9.82977 30.4053 11.3338 30.3638 13.1886 29.6373C15.7436 28.5239 18.0526 26.9152 19.9822 24.9041C21.9936 22.9749 23.6024 20.6658 24.7153 18.1106C25.4471 16.2537 25.4876 14.7486 24.8191 14.0843C24.4145 13.7392 23.89 13.568 23.3597 13.6079Z" fill="black"/>
<path d="M17.0094 23.2109C16.6653 23.2123 16.3347 23.0769 16.0904 22.8345C15.8461 22.5922 15.7081 22.2627 15.7067 21.9186C15.7054 21.5745 15.8407 21.2439 16.0831 20.9997C16.3254 20.7554 16.6549 20.6173 16.999 20.616H17.0094C17.3535 20.616 17.6835 20.7527 17.9268 20.996C18.1702 21.2393 18.3069 21.5693 18.3069 21.9134C18.3069 22.2575 18.1702 22.5876 17.9268 22.8309C17.6835 23.0742 17.3535 23.2109 17.0094 23.2109Z" fill="black"/>
<path d="M57.1277 31H54.1694V22.0942C54.1694 19.2917 52.5813 17.9527 50.495 17.9527C48.3464 17.9527 46.8206 19.2294 46.8206 22.0942V31H43.8624V22.0942C43.8624 17.3922 46.6026 15.2125 50.2148 15.2125C52.5813 15.2125 54.5431 16.2712 55.6018 18.2018H55.6641C56.7228 16.2712 58.6535 15.2125 61.0512 15.2125C64.6633 15.2125 67.4036 17.3922 67.4036 22.0942V31H64.4453V22.0942C64.4453 19.2294 62.9195 17.9527 60.7709 17.9527C58.6846 17.9527 57.1277 19.2917 57.1277 22.0942V31ZM78.7517 31.3041C76.4507 31.3041 74.5451 30.5337 73.0348 28.993C71.5346 27.4421 70.7845 25.5162 70.7845 23.2152C70.7845 20.9041 71.5042 18.9934 72.9435 17.4831C74.3829 15.9727 76.248 15.2176 78.5388 15.2176C79.4004 15.2176 80.2266 15.3443 81.0172 15.5977C81.818 15.841 82.5529 16.2262 83.2219 16.7532C83.8909 17.2702 84.4585 17.8936 84.9248 18.6234C85.3911 19.3532 85.7205 20.2402 85.9131 21.2842C86.1158 22.3181 86.1462 23.4382 86.0043 24.6445H75.6347V22.0293H83.5868C83.5868 20.7926 83.1002 19.7891 82.1271 19.0187C81.1642 18.2484 79.9681 17.8632 78.5388 17.8632C76.9474 17.8632 75.6905 18.3548 74.7681 19.338C73.8558 20.3213 73.3997 21.6137 73.3997 23.2152C73.3997 24.8066 73.8913 26.1142 74.8745 27.138C75.8578 28.1517 77.1501 28.6585 78.7517 28.6585C79.6741 28.6585 80.5053 28.4862 81.2453 28.1415C81.9852 27.7868 82.5883 27.2951 83.0546 26.6667L85.0464 28.3544C84.3166 29.2869 83.4094 30.0117 82.3248 30.5287C81.2503 31.0456 80.0593 31.3041 78.7517 31.3041ZM97.5142 31C96.085 31 94.7875 30.6756 93.6218 30.0269C92.4562 29.368 91.5337 28.4456 90.8546 27.2597C90.1856 26.0636 89.8511 24.7154 89.8511 23.2152C89.8511 21.7049 90.1856 20.3162 90.8546 19.0491C91.5236 17.772 92.446 16.7634 93.6218 16.0234C94.7977 15.2733 96.0951 14.8983 97.5142 14.8983C98.9435 14.8983 100.251 15.2733 101.437 16.0234C102.623 16.7735 103.55 17.7872 104.219 19.0644C104.888 20.3314 105.218 21.715 105.208 23.2152L105.162 31H97.5142ZM92.4663 23.2152C92.4663 24.7661 92.9326 26.0129 93.8651 26.9556C94.8078 27.8881 96.0242 28.3544 97.5142 28.3544H102.593V23.2152C102.593 21.6238 102.106 20.2807 101.133 19.186C100.17 18.0913 98.9637 17.5439 97.5142 17.5439C96.0647 17.5439 94.8585 18.0913 93.8955 19.186C92.9427 20.2807 92.4663 21.6238 92.4663 23.2152ZM108.948 22.9111C108.948 20.6304 109.683 18.7248 111.153 17.1942C112.623 15.6636 114.442 14.8983 116.611 14.8983C118.801 14.8983 120.63 15.6636 122.1 17.1942C123.57 18.7248 124.305 20.6304 124.305 22.9111V31H121.69V22.9111C121.69 21.34 121.208 20.0527 120.245 19.0491C119.292 18.0456 118.081 17.5439 116.611 17.5439C115.141 17.5439 113.93 18.0456 112.977 19.0491C112.035 20.0527 111.563 21.34 111.563 22.9111V31H108.948V22.9111ZM128.045 23.0024C128.045 21.5022 128.38 20.1337 129.049 18.8971C129.718 17.6605 130.64 16.6874 131.816 15.9778C133.002 15.2581 134.309 14.8983 135.739 14.8983C137.594 14.8983 139.19 15.471 140.528 16.6164L139.008 18.7298C138.085 17.9392 136.996 17.5439 135.739 17.5439C134.269 17.5439 133.053 18.0608 132.09 19.0948C131.137 20.1287 130.66 21.4312 130.66 23.0024V31H128.045V23.0024ZM150.366 31.3041C148.065 31.3041 146.159 30.5337 144.649 28.993C143.148 27.4421 142.398 25.5162 142.398 23.2152C142.398 20.9041 143.118 18.9934 144.557 17.4831C145.997 15.9727 147.862 15.2176 150.153 15.2176C151.014 15.2176 151.84 15.3443 152.631 15.5977C153.432 15.841 154.167 16.2262 154.836 16.7532C155.505 17.2702 156.072 17.8936 156.539 18.6234C157.005 19.3532 157.334 20.2402 157.527 21.2842C157.73 22.3181 157.76 23.4382 157.618 24.6445H147.249V22.0293H155.201C155.201 20.7926 154.714 19.7891 153.741 19.0187C152.778 18.2484 151.582 17.8632 150.153 17.8632C148.561 17.8632 147.304 18.3548 146.382 19.338C145.47 20.3213 145.014 21.6137 145.014 23.2152C145.014 24.8066 145.505 26.1142 146.488 27.138C147.472 28.1517 148.764 28.6585 150.366 28.6585C151.288 28.6585 152.119 28.4862 152.859 28.1415C153.599 27.7868 154.202 27.2951 154.669 26.6667L156.66 28.3544C155.93 29.2869 155.023 30.0117 153.939 30.5287C152.864 31.0456 151.673 31.3041 150.366 31.3041ZM167.41 31.3041C165.656 31.3041 164.263 30.777 163.229 29.7228C162.195 28.6686 161.688 27.3002 161.708 25.6176H164.323C164.344 26.5197 164.607 27.2647 165.114 27.8526C165.631 28.4304 166.417 28.7193 167.471 28.7193C168.515 28.7193 169.28 28.5115 169.767 28.0959C170.253 27.6702 170.497 27.1431 170.497 26.5146C170.497 25.9166 170.258 25.4554 169.782 25.131C169.306 24.7965 168.484 24.5634 167.319 24.4316C165.403 24.1985 163.948 23.7119 162.955 22.9719C161.962 22.2219 161.465 21.1068 161.465 19.6269C161.465 18.218 161.972 17.0776 162.985 16.2059C164.009 15.3341 165.297 14.8983 166.847 14.8983C168.591 14.8983 170.005 15.4609 171.09 16.586C172.184 17.7111 172.721 19.1201 172.701 20.8129L170.116 20.7825C170.137 19.8803 169.838 19.11 169.219 18.4714C168.611 17.8226 167.831 17.4932 166.878 17.4831C166.067 17.4628 165.393 17.6503 164.856 18.0456C164.318 18.4308 164.05 18.9731 164.05 19.6725C164.05 20.4024 164.349 20.9649 164.947 21.3603C165.545 21.7556 166.533 22.0191 167.912 22.1509C169.554 22.3232 170.831 22.7844 171.743 23.5345C172.656 24.2846 173.112 25.2577 173.112 26.4538C173.112 29.6873 171.211 31.3041 167.41 31.3041Z" fill="white"/>
</svg>
