<?xml version="1.0" encoding="UTF-8"?><svg id="a" xmlns="http://www.w3.org/2000/svg" viewBox="0 0 40.022 20"><path d="m31.45627,15.33947c0,1.08858-.0073,2.17724.00535,3.26567.00301.2586-.05364.35802-.33675.35661-2.22152-.01105-4.44313-.00948-6.66468-.00139-.24927.00091-.3266-.07264-.32561-.32491.00874-2.22125.00853-4.44256.00013-6.66381-.00092-.24377.05845-.33198.31644-.33096,2.23625.00885,4.47258.00986,6.70882-.00082.2804-.00134.30156.12259.29997.34564-.008,1.11794-.00366,2.23597-.00366,3.35397Zm-1.09158-.6175c-.61299,0-1.09552-.02356-1.57434.00835-.31518.02101-.4352-.10034-.51356-.38566-.12732-.46365-.29745-.91555-.47563-1.45088-.1795.53471-.35815.98326-.47621,1.44722-.08192.32195-.24103.40548-.55252.38787-.46986-.02656-.94233-.00693-1.5302-.00693.5112.37048.90465.67523,1.31918.94795.21317.14024.24974.27067.16195.50738-.17532.47274-.31383.95913-.49457,1.5244.49464-.35509.91774-.64437,1.32321-.95655.17897-.13779.30196-.15419.49015-.00546.40201.31772.82847.60452,1.29728.94165q-.33552-1.37482-1.26461-1.19695c-.01539.00294-.03637-.02334-.07995-.05333.76684-.55303,1.51264-1.09089,2.36981-1.70907Z" style="fill:#1cb57b; stroke-width:0px;"/><path d="m15.65041,15.25884c0,1.11795-.00857,2.23602.00613,3.35378.0036.27391-.08069.3494-.3492.34826-2.20674-.00931-4.41356-.01088-6.62027.00134-.3013.00167-.36081-.09952-.3594-.37925.01104-2.19172.0118-4.38355-.00067-6.57526-.00167-.29285.08239-.36944.36914-.368,2.19201.01095,4.38414.01263,6.57612-.00134.31859-.00203.38992.0981.38501.39911-.01752,1.07354-.00685,2.14753-.00685,3.22135Zm-5.09233,2.31542c.39687-.27684.80344-.54108,1.18646-.8359.18796-.14468.31328-.13135.49258.00748.40928.3169.83626.61096,1.3299.96768-.15006-.46788-.27038-.84169-.38971-1.21581-.03761-.11793-.07417-.2209-.24111-.182-.10185.02373-.24822.10036-.29465-.07174-.0451-.16719.11384-.22104.21519-.29536.52788-.3871,1.05872-.77017,1.68782-1.22671-.59798,0-1.07668-.0182-1.55314.00667-.29698.0155-.44488-.06243-.5231-.37091-.11778-.46446-.29756-.9132-.48204-1.46082-.1824.54957-.35357.98831-.46964,1.44117-.08186.31939-.24186.40881-.5558.39088-.47102-.02691-.94473-.007-1.53648-.007.52638.37892.93769.68402,1.35932.97414.1708.11752.22142.22261.14085.43529-.17126.45208-.30163.91965-.44838,1.38092-.00131.03641-.00263.07283-.00394.10924.02862-.01573.05724-.03147.08585-.0472Z" style="fill:#1cb57b; stroke-width:0px;"/><path d="m23.53758,15.34748c.00004,1.08759-.00806,2.17529.00582,3.2627.00341.26688-.06925.35235-.34347.3511-2.20482-.01011-4.40973-.01042-6.61454.00026-.28086.00136-.3393-.09592-.33822-.356.0092-2.20454.0092-4.40914.00021-6.61368-.00107-.26343.06745-.35314.34321-.35184,2.20482.01037,4.40973.01096,6.61454-.00061.2851-.00149.34006.10043.33739.35718-.01159,1.11686-.00498,2.23392-.00494,3.3509Zm-2.14327,2.29458c.03352.0347.04459.0342.03017-.00023-.00074-.00178-.02299.00546-.03523.00849-.01042-.46252-.15023-.92695-.39338-1.27317-.16895-.24057-.57376.15921-.94466.08485.78506-.56891,1.54373-1.1187,2.40109-1.74001-.63706,0-1.13541-.01353-1.63251.00566-.25153.00971-.35956-.07462-.42752-.31852-.13393-.48065-.30882-.94989-.49843-1.51884-.18904.57024-.36611,1.0325-.49091,1.50845-.07203.27471-.20852.33741-.46618.32821-.49039-.01751-.98186-.00508-1.59795-.00508.51725.37467.92154.68259,1.34253.96569.19292.12973.2222.2573.14647.4683-.17246.48054-.32082.96972-.51162,1.55566.48868-.35445.89604-.61775,1.26381-.92798.24474-.20644.4114-.16504.63791.0127.37961.29789.78288.56565,1.17642.8458Z" style="fill:#1cb57b; stroke-width:0px;"/><path d="m32.06337,15.30764c.00002-1.08737.00861-2.17486-.00578-3.26205-.00379-.28655.04465-.40995.37534-.40765,2.17493.01509,4.35005.01342,6.52502.00113.29418-.00166.36512.08764.3637.37097-.01097,2.18939-.00949,4.37887-.00148,6.56828.00096.26183-.03119.38735-.34873.38518-2.18963-.01494-4.37943-.01227-6.56912-.00223-.27101.00124-.34869-.07683-.34508-.34752.01467-1.10187.00611-2.20406.00613-3.30613Zm1.08102-.58565c.50796.36564.89039.66411,1.29699.92491.24426.15667.27078.3257.18104.57584-.1648.45934-.30961.92585-.49386,1.48352.47954-.34387.88822-.60269,1.25482-.91145.2579-.21722.43103-.17778.67033.01773.37312.30483.77681.57224,1.23349.90333-.07887-.24616-.12686-.39843-.17642-.5502q-.27582-.84458-1.14458-.67286c-.01454.00287-.03542-.02636-.07135-.05495.75774-.54911,1.50844-1.09312,2.36797-1.716-.52632,0-.92036-.03606-1.30487.00906-.48876.05735-.75371-.08207-.84664-.59721-.07053-.39098-.24385-.76341-.40658-1.24897-.18691.56948-.35485,1.03154-.48696,1.50362-.07124.2546-.18383.35424-.45813.34056-.4927-.02456-.98749-.00693-1.61525-.00693Z" style="fill:#1cb57b; stroke-width:0px;"/><path d="m.47442,15.25826c0-1.07312.0099-2.14639-.00646-3.21926-.00449-.29432.05584-.40322.37965-.40101,2.17583.01486,4.35184.01258,6.52773.00194.28948-.00142.36992.07927.36815.37306-.01316,2.19027-.01259,4.38069-.00051,6.57097.00158.28717-.06903.37929-.36479.37777-2.19058-.01126-4.38128-.01157-6.57185.00064-.28374.00158-.34026-.09279-.33733-.3525.01263-1.11708.0054-2.23439.0054-3.35161Zm2.16185,2.34164c.4066-.28964.81838-.57239,1.21731-.87223.16495-.12398.28227-.13464.45456.00002.41706.32596.85422.62619,1.36771.99791-.07252-.20938-.10678-.30409-.13818-.39974-.10067-.30664-.1256-.67681-.31868-.90493-.25788-.30468-.60098.13772-.97185.03742.78207-.56833,1.53915-1.1185,2.38925-1.73627-.64233,0-1.15497-.00815-1.66713.00394-.21012.00496-.30964-.05925-.37119-.27212-.14441-.49948-.32354-.98892-.51734-1.56831-.18184.54978-.35011.99874-.47545,1.45939-.07827.28766-.20171.40642-.51668.38526-.47438-.03188-.9525-.00831-1.55931-.00831.5076.36996.89478.6767,1.30775.94356.23226.15009.25112.29622.16503.53698-.15767.4409-.28135.89395-.41919,1.34195-.01381.02641-.02762.05281-.04143.07922.03161-.00791.06322-.01582.09483-.02373Z" style="fill:#1cb57b; stroke-width:0px;"/><path d="m7.09763,7.02581c.28024.84244.56048,1.68487.84072,2.52731-.02957.01721-.05915.03441-.08873.05162-.80573-.58391-1.62416-1.15143-2.41042-1.76047-.28189-.21835-.4588-.18167-.71708.01427-.80113.60776-1.62077,1.19111-2.53173,1.85581.36026-1.10045.6775-2.08653,1.00825-3.06805.08438-.2504.05835-.40452-.18184-.57141-.85041-.59085-1.67945-1.21244-2.61646-1.89514,1.14533,0,2.1663-.01047,3.18682.00655.29606.00494.43419-.0724.52449-.37524.29191-.97903.62515-1.94574.97752-3.02453.35446,1.07946.69051,2.05339.98772,3.03903.0859.28486.21553.36296.49323.3594,1.02738-.01319,2.05503-.00525,3.09028-.00525.02516.15859-.12258.17667-.20456.23687-.75773.55648-1.51897,1.10816-2.27939,1.66097-.1062.0772-.22775.13776-.28423.26763-.56446.32301-1.0963.69019-1.55889,1.15111-.03483.00669-.06964.01343-.10444.02017.0057.01132.0114.02264.0171.03397.02782-.01982.05564-.03963.08346-.05945.60355-.10125,1.18961-.26897,1.76818-.46515Z" style="fill:#1cb57b; stroke-width:0px;"/><path d="m27.29495,5.95572c.9274-.89379,2.28751-.55035,2.64655.58481.16364.51737.16232,1.04491.00382,1.5612-.33175,1.08063-1.57557,1.43354-2.44048.70179-.0419-.03545-.08502-.06945-.17364-.14167,0,.51579-.0229.97859.00713,1.43794.02474.37846-.21861.28054-.42179.29875-.24227.02172-.37189-.01716-.36826-.31932.01662-1.38787.0067-2.77604.01114-4.16409.00055-.1717-.07882-.41551.25485-.37145.22706.02998.57896-.13696.48068.41202Zm1.96917,1.42435c-.00034-.23797-.01778-.44007-.09049-.63624-.16589-.44757-.48485-.68566-.9159-.67458-.44511.01145-.72596.24643-.874.72197-.11779.37838-.10641.76037.03507,1.11958.15518.39401.44843.65002.90344.63836.43206-.01107.69653-.25579.85384-.64116.07381-.18082.0786-.37058.08805-.52793Z" style="fill:#fff; stroke-width:0px;"/><path d="m37.04973,7.32573c-.00439,1.13435-.69595,1.85063-1.78421,1.848-1.07144-.00258-1.78062-.74556-1.77886-1.86363.0018-1.14438.71326-1.87568,1.81661-1.8673,1.07724.00819,1.75091.73449,1.74646,1.88292Zm-2.77624.05075c.01754.09354.03416.25415.07875.40657.14101.48206.46687.75632.89407.76799.44394.01213.81778-.26838.9569-.75102.12564-.43585.10821-.87127-.12737-1.27219-.28274-.48117-.89116-.61629-1.32762-.29972-.367.26619-.45514.65897-.47473,1.14837Z" style="fill:#fff; stroke-width:0px;"/><path d="m13.06529,6.96143c.00009.60238-.02498,1.20618.00926,1.80661.02141.37553-.20101.32171-.41605.31071-.20443-.01046-.46955.11669-.46082-.30121.02424-1.16017-.00119-2.32131.01519-3.48176.00403-.2853-.06427-.39366-.3609-.36527-.27661.02647-.56047-.01891-.83623.01162-.3308.03662-.37133-.11057-.38391-.39703-.01372-.31236.10136-.35863.37426-.35521,1.08719.01363,2.17508.02258,3.26176-.00455.33569-.00838.33423.13793.34323.38515.00988.27162-.04291.38769-.35267.3757-.3904-.01511-.93016-.17919-1.13555.07072-.19599.23847-.05347.75618-.05718,1.15117-.00248.26443-.00047.52891-.00038.79337Z" style="fill:#fff; stroke-width:0px;"/><path d="m22.02543,5.44307c.85294.00058,1.34055.27574,1.5368.77795.08094.20715.09046.33564-.19585.31541-.26397-.01866-.51878.04996-.70142-.27427-.14726-.2614-.82129-.2742-1.05807-.07373-.23115.1957-.17151.38354.05929.53102.21432.13695.46968.15745.70913.222.23955.06457.4838.11452.71874.19266.38048.12655.6244.39218.65934.79653.0339.39242-.12687.71142-.45575.94089-.54707.3817-1.57222.41111-2.14057.05982-.16551-.1023-.31442-.22483-.39012-.40601-.07744-.18535-.29771-.46489-.07117-.55646.20184-.08159.57654-.22698.76368.19985.18864.43025,1.06289.53502,1.38819.19291.23822-.25054.12458-.45495-.13027-.60461-.27067-.15895-.58971-.16306-.88269-.25217-.19507-.05933-.39628-.1045-.58312-.1835-.35221-.14892-.55494-.41139-.57132-.80929-.01726-.41944.19044-.69475.54137-.87762.2919-.15211.60991-.20053.80381-.19138Z" style="fill:#fff; stroke-width:0px;"/><path d="m19.26377,8.68241c-.36928.37391-.72947.52576-1.17226.49136-.64686-.05026-1.06198-.39109-1.09899-1.03881-.04523-.79159-.02115-1.58727-.02237-2.38119-.0006-.38948.29687-.16647.45632-.20161.17268-.03805.34329-.03996.33387.24804-.02063.63122-.01363,1.26366-.00482,1.89543.00831.59574.20409.84127.65411.85546.50919.01606.8425-.29266.86184-.8451.02159-.6166.03701-1.2359.00237-1.85106-.02139-.37999.20104-.30195.41344-.31207.23762-.01132.4039-.01863.39285.32889-.02989.9398-.00475,1.88124-.01576,2.82186-.00165.14066.12624.40729-.18809.38061-.23872-.02025-.63049.20115-.6125-.39181Z" style="fill:#fff; stroke-width:0px;"/><path d="m24.53461,7.31428c0-.23505-.01276-.47096.00316-.70492.02098-.30833.01953-.55579-.41712-.48832-.25029.03867-.15422-.18921-.16712-.31367-.01326-.12801-.03196-.29832.17787-.25994.43774.08006.43377-.18552.4051-.48485-.00699-.07291.00805-.14868-.00414-.22022-.05702-.33455.11625-.36588.4-.37426.31457-.00928.4255.08148.37458.38957-.01888.11427.01437.2371-.00411.35151-.04517.27966.06746.37199.33844.33872.20654-.02536.38444-.04084.38527.28951.00085.33994-.18748.31064-.39264.28755-.27611-.03107-.34929.07457-.33559.34734.02502.49819.00449.99859.00621,1.49806.00109.31678.0843.56426.48011.5027.22-.03421.25219.09354.22443.25784-.0225.13321.10802.34192-.17736.36068-.26562.01745-.53265.04001-.78965-.02963-.27538-.07461-.46972-.24994-.4761-.55862-.00818-.39619-.00199-.79267-.00199-1.18903-.00978,0-.01957-.00001-.02935-.00002Z" style="fill:#fff; stroke-width:0px;"/><path d="m37.86357,7.31179c0-.22029-.0023-.4406.00056-.66085.00374-.28849.08188-.611-.41732-.52645-.23814.04033-.15621-.1903-.16692-.31799-.01065-.12695-.03392-.29865.17739-.25923.43423.08101.44149-.17561.40749-.48119-.00807-.07253.00906-.14845-.00297-.21986-.05517-.32758.10472-.37754.39573-.37749.29273.00005.44647.05475.39391.38008-.01619.10019.00948.20689-.00478.30767-.0406.28691.039.44335.36489.39049.19454-.03156.32506-.00306.31487.2649-.00909.23916-.05682.36027-.31617.31656-.27832-.04691-.38346.05308-.36871.35264.02525.51265.00696,1.02759.00196,1.54151-.00287.2946.09095.50092.42991.4521.25886-.03729.24918.11536.24429.28794-.00486.17168.03943.31761-.24677.34187-.91518.07757-1.20148-.16053-1.20713-1.08779-.00143-.23496-.00021-.46994-.00022-.70492Z" style="fill:#fff; stroke-width:0px;"/><path d="m32.89257,6.64126c-.00003.70483-.02276,1.4107.00968,2.11403.01593.34529-.15439.3398-.39223.32797-.21298-.01059-.41844.06392-.41134-.3136.02679-1.42384.02497-2.84871.00151-4.27266-.00627-.38069.21287-.29794.41957-.30102.19856-.00296.39638-.05913.3819.28712-.03005.71825-.00907,1.43864-.00909,2.15815Z" style="fill:#fff; stroke-width:0px;"/><path d="m15.22881,6.00377c.28643-.29427.56496-.58257,1.0353-.5612.40336.01833.2052.3015.24345.47932.04052.18843.01283.27954-.23804.27222-.63382-.01847-1.02138.37537-1.04632,1.03803-.01932.51335-.03278,1.0298.00241,1.54135.02613.37985-.20418.30196-.41559.30886-.2271.00742-.41136.0392-.39942-.32042.03118-.93896.01149-1.87965.00978-2.81964-.0004-.21772-.05974-.42872.31223-.41104.31483.01496.50528.05351.43975.41931-.00314.03691-.02159.09694-.00713.10633.05086.03304.05181-.02207.06356-.05314Z" style="fill:#fff; stroke-width:0px;"/><path d="m31.43684,7.32473c-.00023.49915-.01884.99924.00631,1.49713.01679.33231-.19702.27203-.37153.2534-.16447-.01756-.43543.14848-.43129-.23317.01112-1.02689.00897-2.05399.00259-3.08095-.00221-.35514.25647-.1991.40622-.20802.15904-.00947.40309-.11467.39216.23024-.01627.51332-.00422,1.02753-.00445,1.54136Z" style="fill:#fff; stroke-width:0px;"/><path d="m5.33335,7.49633c.46256-.46097.9944-.82814,1.55886-1.15116.06846.22692.13693.45387.20541.68073-.57856.19609-1.16462.36381-1.76817.46506l.0039.00537Z" style="fill:#222; stroke-width:0px;"/><path d="m31.06223,4.92406c-.29778.06185-.43334.00277-.43168-.33439.00158-.31987.0721-.4151.40484-.40786.31178.00678.42147.05917.41512.40071-.00614.33023-.11447.41787-.38829.34154Z" style="fill:#fff; stroke-width:0px;"/><path d="m30.36469,14.72197c-.85717.61817-1.60297,1.15604-2.36981,1.70907.04358.02999.06456.05627.07995.05333q.92913-.17765,1.26461,1.19695c-.46881-.33713-.89527-.62392-1.29728-.94165-.1882-.14874-.31119-.13233-.49015.00546-.40547.31218-.82858.60146-1.32321.95655.18074-.56527.31925-1.05166.49457-1.5244.08779-.23672.05122-.36714-.16195-.50738-.41453-.27271-.80799-.57746-1.31918-.94795.58786,0,1.06033-.01964,1.5302.00693.31149.01761.4706-.06592.55252-.38787.11805-.46397.2967-.91252.47621-1.44722.17818.53533.34831.98723.47563,1.45088.07835.28532.19837.40667.51356.38566.47882-.03191.96135-.00835,1.57434-.00835Z" style="fill:#fdfefe; stroke-width:0px;"/><path d="m10.47578,17.51218c.14713-.46122.2775-.92879.44876-1.38087.08057-.21268.02995-.31777-.14085-.43529-.42163-.29011-.83295-.59522-1.35932-.97414.59175,0,1.06546-.01991,1.53648.007.31394.01793.47394-.07148.5558-.39088.11606-.45286.28724-.8916.46964-1.44117.18448.54762.36426.99636.48204,1.46082.07822.30848.22612.38641.5231.37091.47646-.02487.95516-.00667,1.55314-.00667-.62911.45654-1.15994.83961-1.68782,1.22671-.10135.07432-.26029.12817-.21519.29536.04643.1721.1928.09547.29465.07174.16694-.0389.2035.06406.24111.182.11933.37412.23964.74793.38971,1.21581-.49364-.35671-.92062-.65077-1.3299-.96768-.1793-.13883-.30462-.15215-.49258-.00748-.38302.29482-.78959.55906-1.18646.8359-.02743-.0207-.05487-.04139-.0823-.06209Z" style="fill:#fdfefe; stroke-width:0px;"/><path d="m10.55808,17.57427c-.02862.01573-.05724.03147-.08585.0472.00131-.03641.00262-.07283.00375-.10926.02724.02067.05468.04137.08211.06206Z" style="fill:#fdfefe; stroke-width:0px;"/><path d="m21.3941,17.64236c-.39331-.28044-.79658-.5482-1.1762-.84609-.22651-.17775-.39317-.21915-.63791-.0127-.36777.31023-.77513.57353-1.26381.92798.1908-.58593.33916-1.07512.51162-1.55566.07573-.211.04644-.33857-.14647-.4683-.42098-.2831-.82527-.59103-1.34253-.96569.6161,0,1.10756-.01243,1.59795.00508.25766.0092.39415-.0535.46618-.32821.1248-.47595.30187-.93821.49091-1.50845.18961.56894.3645,1.03818.49843,1.51884.06796.2439.17599.32824.42752.31852.49709-.01919.99545-.00566,1.63251-.00566-.85736.62131-1.61603,1.17109-2.40109,1.74001.37089.07436.7757-.32542.94466-.08485.24315.34622.38296.81065.39338,1.27317l.00484-.00797Z" style="fill:#fdfefe; stroke-width:0px;"/><path d="m21.38925,17.65033c.01224-.00304.03449-.01027.03523-.00849.01442.03443.00335.03493-.03028.00038-.00011.00015-.00495.00812-.00495.00812Z" style="fill:#fdfefe; stroke-width:0px;"/><path d="m33.1444,14.72199c.62776,0,1.12255-.01763,1.61525.00693.2743.01368.38689-.08596.45813-.34056.13211-.47208.30005-.93414.48696-1.50362.16273.48556.33605.858.40658,1.24897.09293.51513.35788.65456.84664.59721.38451-.04512.77856-.00906,1.30487-.00906-.85953.62288-1.61023,1.16689-2.36797,1.716.03593.02858.05681.05781.07135.05495q.86868-.17143,1.14458.67286c.04956.15176.09755.30404.17642.5502-.45668-.33108-.86037-.5985-1.23349-.90333-.23931-.19551-.41243-.23494-.67033-.01773-.3666.30876-.77528.56759-1.25482.91145.18425-.55767.32906-1.02418.49386-1.48352.08974-.25014.06322-.41917-.18104-.57584-.4066-.26079-.78903-.55927-1.29699-.92491Z" style="fill:#fdfefe; stroke-width:0px;"/><path d="m2.58287,17.5444c.13785-.44799.26153-.90104.4192-1.34194.0861-.24075.06723-.38689-.16503-.53698-.41297-.26686-.80015-.5736-1.30775-.94356.60681,0,1.08493-.02357,1.55931.00831.31497.02117.4384-.09759.51668-.38526.12534-.46065.29361-.90961.47545-1.45939.1938.57939.37292,1.06883.51734,1.56831.06155.21287.16107.27708.37119.27212.51216-.01209,1.02481-.00394,1.66713-.00394-.8501.61777-1.60718,1.16794-2.38925,1.73627.37087.1003.71397-.3421.97185-.03742.19307.22811.218.59829.31868.90493.0314.09565.06566.19035.13818.39974-.51348-.37172-.95065-.67195-1.36771-.99791-.17229-.13466-.28961-.12399-.45456-.00002-.39893.29984-.81071.58259-1.21731.87223-.0165-.01975-.0343-.03824-.0534-.05549Z" style="fill:#fdfefe; stroke-width:0px;"/><path d="m2.63627,17.5999c-.03161.00791-.06322.01582-.09483.02373.01381-.02641.02762-.05281.04143-.07922.01909.01725.0369.03574.0534.05549Z" style="fill:#fdfefe; stroke-width:0px;"/><path d="m5.32945,7.49096c-.02782.01982-.05564.03963-.08346.05945-.0057-.01132-.0114-.02264-.0171-.03397.0348-.00674.06961-.01348.10444-.02017.00003.00005-.00388-.00532-.00388-.00532Z" style="fill:#fff; stroke-width:0px;"/></svg>